barebones-pedaling
version=1
nRows=7
nColumns=49
inDegrees=yes
endheader
time	/jointset/bb/crank_angle/value	/jointset/bb/crank_angle/speed	/jointset/spindle/pedal_angle_r/value	/jointset/spindle/pedal_angle_r/speed	/jointset/ground_pelvis/pelvis_tilt/value	/jointset/ground_pelvis/pelvis_tilt/speed	/jointset/ground_pelvis/pelvis_list/value	/jointset/ground_pelvis/pelvis_list/speed	/jointset/ground_pelvis/pelvis_rotation/value	/jointset/ground_pelvis/pelvis_rotation/speed	/jointset/ground_pelvis/pelvis_tx/value	/jointset/ground_pelvis/pelvis_tx/speed	/jointset/ground_pelvis/pelvis_ty/value	/jointset/ground_pelvis/pelvis_ty/speed	/jointset/ground_pelvis/pelvis_tz/value	/jointset/ground_pelvis/pelvis_tz/speed	/jointset/hip_r/hip_angle_r/value	/jointset/hip_r/hip_angle_r/speed	/jointset/hip_r/hip_adduction_r/value	/jointset/hip_r/hip_adduction_r/speed	/jointset/hip_r/hip_rotation_r/value	/jointset/hip_r/hip_rotation_r/speed	/jointset/knee_r/knee_angle_r/value	/jointset/knee_r/knee_angle_r/speed	/jointset/knee_r/tib_tx_r/value	/jointset/knee_r/tib_tx_r/speed	/jointset/knee_r/tib_ty_r/value	/jointset/knee_r/tib_ty_r/speed	/jointset/tib_pat_r/pat_angle_r/value	/jointset/tib_pat_r/pat_angle_r/speed	/jointset/tib_pat_r/pat_tx_r/value	/jointset/tib_pat_r/pat_tx_r/speed	/jointset/tib_pat_r/pat_ty_r/value	/jointset/tib_pat_r/pat_ty_r/speed	/jointset/ankle_r/ankle_angle_r/value	/jointset/ankle_r/ankle_angle_r/speed	/jointset/subtalar_r/subtalar_angle_r/value	/jointset/subtalar_r/subtalar_angle_r/speed	/jointset/mtp_r/mtp_angle_r/value	/jointset/mtp_r/mtp_angle_r/speed	/forceset/bifemlh_r/activation	/forceset/bifemlh_r/fiber_length	/forceset/bifemsh_r/activation	/forceset/bifemsh_r/fiber_length	/forceset/glut_max2_r/activation	/forceset/glut_max2_r/fiber_length	/forceset/vas_int_r/activation	/forceset/vas_int_r/fiber_length
      3.66804345	   -888.87779674	  -1066.38731816	    903.23837065	    692.28330851	      0.00000000	      0.00000000	      0.00000000	     -0.00000000	     -0.00000000	     -0.00000000	     -0.10000000	      0.00000000	     -0.05000000	     -0.00000000	      0.00000000	      0.00000000	     36.84179113	    -40.87025471	      4.36066532	      0.89038064	      2.00856349	    -27.82752718	    -45.85540975	   -278.91162823	      0.00331967	      0.03765807	     -0.47193813	     -0.07267327	     16.86538682	     16.16885685	      0.04679903	     -0.07432555	     -0.02346374	      0.01131866	     23.78039408	    -54.31836162	      0.00000000	      0.00000000	     -0.00000000	     -0.00000000	      0.05000000	      0.10000000	      0.05000000	      0.10000000	      0.05000000	      0.10000000	      0.05000000	      0.10000000
      3.67081589	   -891.84799434	  -1074.83725438	    905.11832163	    664.01194756	      0.00000000	      0.00000000	      0.00000000	     -0.00000000	     -0.00000000	     -0.00000000	     -0.10000000	      0.00000000	     -0.05000000	     -0.00000000	      0.00000000	      0.00000000	     36.77377087	     -8.72638466	      4.36333475	      1.02522940	      1.92358938	    -33.27492112	    -46.71472305	   -339.46842324	      0.00343458	      0.04494815	     -0.47216343	     -0.08954575	     16.91397672	     18.71546176	      0.04656921	     -0.09111360	     -0.02342903	      0.01364376	     23.61755136	    -62.57982359	      0.00000000	      0.00000000	     -0.00000000	     -0.00000000	      0.05000000	      0.10000000	      0.05000000	      0.10000000	      0.05000000	      0.10000000	      0.05000000	      0.10000000
      3.67358833	   -894.83061088	  -1075.69104196	    906.92190950	    637.50478365	      0.00000000	      0.00000000	      0.00000000	      0.00000000	     -0.00000000	     -0.00000000	     -0.10000000	      0.00000000	     -0.05000000	     -0.00000000	      0.00000000	      0.00000000	     36.79002697	     19.79918478	      4.36629267	      1.09831812	      1.82517606	    -37.52090539	    -47.72879257	   -390.43376925	      0.00356718	      0.05039523	     -0.47243281	     -0.10444313	     16.96822360	     20.25337112	      0.04629589	     -0.10566925	     -0.02338850	      0.01552239	     23.43656602	    -67.43335359	      0.00000000	      0.00000000	     -0.00000000	     -0.00000000	      0.05000000	      0.10000000	      0.05000000	      0.10000000	      0.05000000	      0.10000000	      0.05000000	      0.10000000
      3.67636078	   -897.80753693	  -1071.07795771	    908.65613435	    614.12159987	      0.00000000	      0.00000000	      0.00000000	      0.00000000	     -0.00000000	     -0.00000000	     -0.10000000	      0.00000000	     -0.05000000	     -0.00000000	      0.00000000	      0.00000000	     36.87984513	     44.33424143	      4.36937017	      1.11249814	      1.71658510	    -40.64045711	    -48.87075964	   -431.83683692	      0.00371229	      0.05397781	     -0.47274064	     -0.11728492	     17.02542419	     20.86915142	      0.04598539	     -0.11795714	     -0.02334336	      0.01697127	     23.24645509	    -69.25136973	      0.00000000	      0.00000000	     -0.00000000	     -0.00000000	      0.05000000	      0.10000000	      0.05000000	      0.10000000	      0.05000000	      0.10000000	      0.05000000	      0.10000000
      3.67913322	   -900.76631503	  -1062.87245960	    910.33050221	    594.34901906	      0.00000000	      0.00000000	      0.00000000	      0.00000000	     -0.00000000	     -0.00000000	     -0.10000000	     -0.00000000	     -0.05000000	     -0.00000000	      0.00000000	      0.00000000	     37.03233569	     65.07193214	      4.37241407	      1.07559733	      1.60070892	    -42.80913652	    -50.11533929	   -464.66260560	      0.00386489	      0.05583221	     -0.47308137	     -0.12821399	     17.08323942	     20.72677496	      0.04564374	     -0.12818060	     -0.02329474	      0.01804859	     23.05482537	    -68.63486647	      0.00000000	      0.00000000	     -0.00000000	     -0.00000000	      0.05000000	      0.10000000	      0.05000000	      0.10000000	      0.05000000	      0.10000000	      0.05000000	      0.10000000
      3.68322687	   -905.08596832	  -1046.99802217	    912.71434920	    571.48973196	      0.00000000	      0.00000000	      0.00000000	      0.00000000	     -0.00000000	     -0.00000000	     -0.10000000	      0.00000000	     -0.05000000	     -0.00000000	      0.00000000	      0.00000000	     37.35141919	     89.75139860	      4.37658133	      0.94772425	      1.42115686	    -44.68876279	    -52.09501357	   -500.24391549	      0.00409447	      0.05583354	     -0.47363424	     -0.14134723	     17.16593466	     19.51042349	      0.04509342	     -0.14012034	     -0.02321850	      0.01910916	     22.78113849	    -64.56534583	      0.00000000	      0.00000000	     -0.00000000	     -0.00000000	      0.05000000	      0.10000000	      0.05000000	      0.10000000	      0.05000000	      0.10000000	      0.05000000	      0.10000000
      3.68732053	   -909.33548959	  -1028.92433891	    915.01817468	    555.00568380	      0.00000000	      0.00000000	      0.00000000	      0.00000000	     -0.00000000	     -0.00000000	     -0.10000000	      0.00000000	     -0.05000000	     -0.00000000	      0.00000000	      0.00000000	     37.75955263	    108.84589207	      4.38008864	      0.75748176	      1.23631104	    -45.47489638	    -54.19491730	   -524.00623027	      0.00431834	      0.05314175	     -0.47423465	     -0.15155801	     17.24195984	     17.54272086	      0.04450057	     -0.14909700	     -0.02313890	      0.01971982	     22.52937762	    -58.15117530	      0.00000000	      0.00000000	     -0.00000000	     -0.00000000	      0.05000000	      0.10000000	      0.05000000	      0.10000000	      0.05000000	      0.10000000	      0.05000000	      0.10000000
